<?xml version="1.0" standalone="no"?>
<!DOCTYPE svg PUBLIC "-//W3C//DTD SVG 20010904//EN"
 "http://www.w3.org/TR/2001/REC-SVG-20010904/DTD/svg10.dtd">
<svg version="1.0" xmlns="http://www.w3.org/2000/svg"
 width="512.000000pt" height="512.000000pt" viewBox="0 0 512.000000 512.000000"
 preserveAspectRatio="xMidYMid meet">
<metadata>
Created by potrace 1.14, written by Peter Selinger 2001-2017
</metadata>
<g transform="translate(0.000000,512.000000) scale(0.100000,-0.100000)"
fill="#000000" stroke="none">
<path d="M1686 4613 c-2 -3 -29 -7 -58 -8 -76 -5 -120 -13 -127 -22 -3 -4 -15
-9 -26 -9 -34 -3 -64 -10 -71 -17 -4 -4 -16 -7 -26 -7 -10 0 -18 -5 -18 -11 0
-5 -4 -8 -10 -4 -9 6 -50 -13 -61 -28 -3 -5 -8 -8 -10 -6 -5 3 -81 -33 -96
-46 -35 -30 -43 -35 -50 -35 -4 0 -22 -14 -40 -30 -18 -17 -37 -30 -44 -30 -7
0 -10 -2 -7 -5 3 -3 -13 -25 -36 -48 -67 -68 -154 -198 -148 -219 1 -5 -2 -8
-7 -8 -5 0 -12 -15 -16 -32 -4 -18 -9 -37 -11 -43 -17 -55 -34 -125 -34 -145
0 -15 -9 -32 -21 -40 -20 -14 -56 -42 -109 -85 -52 -42 -208 -203 -255 -263
-28 -35 -62 -78 -77 -95 -15 -18 -28 -38 -28 -44 0 -7 -4 -13 -9 -13 -4 0 -19
-20 -32 -45 -13 -25 -27 -45 -30 -45 -3 0 -16 -21 -29 -47 -13 -27 -27 -51
-32 -54 -5 -3 -10 -13 -12 -21 -1 -9 -7 -22 -13 -29 -12 -16 -28 -60 -25 -71
1 -5 -2 -8 -8 -8 -5 0 -10 -5 -10 -12 0 -6 -12 -40 -26 -76 -14 -35 -27 -74
-30 -85 -2 -11 -8 -34 -13 -51 -31 -97 -35 -340 -7 -451 18 -69 59 -164 84
-195 43 -51 92 -100 101 -100 5 0 14 -6 18 -14 24 -41 220 -116 343 -132 19
-2 42 -6 50 -9 8 -2 44 -7 80 -11 61 -6 117 -9 330 -14 l86 -3 0 -31 c1 -17 5
-60 9 -96 5 -36 9 -75 9 -87 1 -13 4 -23 8 -23 4 0 6 -8 6 -17 -1 -21 5 -50
22 -113 7 -25 14 -53 15 -62 6 -30 48 -142 57 -153 4 -5 8 -17 8 -27 0 -10 4
-18 8 -18 4 0 14 -15 20 -34 30 -82 126 -209 243 -322 43 -42 58 -65 67 -102
7 -26 14 -54 16 -63 12 -48 74 -214 103 -277 18 -39 33 -75 34 -80 0 -4 4 -11
9 -17 4 -5 20 -32 35 -60 16 -27 31 -52 34 -55 3 -3 22 -25 41 -50 19 -25 37
-46 41 -48 4 -2 20 -15 36 -31 82 -78 228 -101 309 -49 22 14 53 41 68 60 15
18 34 41 41 50 19 23 83 160 91 195 4 15 10 33 15 38 4 6 8 13 8 18 0 4 3 17
6 30 4 13 8 32 9 43 3 20 1 20 111 10 296 -28 655 -25 930 8 17 2 60 7 98 11
l67 7 1 -28 c2 -74 6 -101 27 -191 5 -24 7 -43 4 -43 -3 0 3 -9 13 -20 10 -11
15 -20 11 -20 -15 0 45 -98 82 -134 48 -47 96 -65 166 -62 82 3 157 46 248
139 43 44 78 83 78 87 0 4 9 18 21 31 26 30 99 154 99 168 0 5 6 14 14 18 8 4
15 10 16 13 6 32 14 50 23 50 6 0 7 3 4 7 -4 3 -1 13 7 22 8 9 15 21 16 26 1
6 18 44 37 85 19 41 36 80 37 85 1 6 11 28 20 50 10 22 26 62 36 89 15 41 39
74 125 170 46 51 186 286 171 286 -4 0 0 10 8 22 27 43 79 214 91 298 4 24 8
47 10 50 1 3 6 36 10 73 3 37 8 78 11 90 7 35 8 346 1 407 -4 30 -9 80 -13
110 -3 30 -7 64 -9 75 -2 11 -6 39 -9 62 -3 23 -11 55 -17 70 -6 15 -10 29 -9
31 0 1 -7 28 -17 60 -9 31 -16 60 -15 65 1 4 -3 7 -8 7 -5 0 -9 3 -8 8 4 13
-55 152 -64 152 -5 0 -6 5 -3 10 3 6 1 10 -4 10 -6 0 -11 5 -11 12 0 13 -81
141 -92 146 -5 2 -8 10 -8 18 0 9 -4 12 -10 9 -5 -3 -10 -1 -10 5 0 14 -175
190 -188 190 -5 0 -20 9 -33 21 -66 58 -239 149 -384 202 -38 14 -79 29 -90
33 -11 4 -25 6 -32 5 -6 -1 -14 3 -18 9 -3 5 -19 10 -34 10 -15 0 -31 3 -35 7
-6 7 -20 11 -61 18 -11 2 -20 4 -20 5 0 3 -41 10 -72 13 -18 1 -33 6 -33 10 0
4 -6 7 -12 6 -12 -3 -117 8 -163 17 -11 2 -44 6 -73 8 -29 3 -58 9 -64 12 -7
5 -8 2 -3 -6 6 -9 4 -11 -5 -5 -14 8 -59 13 -197 19 -40 1 -76 5 -79 9 -4 4
-8 35 -9 69 -2 35 -6 81 -10 103 -4 22 -8 45 -9 52 -1 7 -5 16 -9 19 -4 4 -7
13 -7 19 0 7 -8 30 -17 51 -9 22 -16 42 -15 47 1 4 -3 7 -8 7 -6 0 -10 5 -10
12 0 18 -79 118 -129 165 -77 72 -90 83 -96 83 -4 0 -25 13 -48 28 -23 16 -57
35 -74 43 -18 8 -33 17 -33 21 0 5 -11 8 -25 8 -14 0 -25 4 -25 9 0 5 -8 11
-17 13 -10 3 -21 6 -25 7 -4 1 -28 10 -52 21 -24 10 -47 16 -50 13 -3 -4 -6
-1 -6 6 0 7 -6 11 -14 8 -8 -3 -17 -3 -21 1 -4 4 -10 7 -13 8 -4 0 -14 3 -22
7 -19 7 -64 16 -115 23 -22 3 -73 15 -114 25 -40 11 -76 18 -79 15 -2 -3 -17
1 -33 10 -18 9 -29 11 -29 4 0 -6 -4 -8 -10 -5 -5 3 -20 8 -32 11 -32 7 -325
14 -332 7z"/>
</g>
</svg>
